<svg xmlns="http://www.w3.org/2000/svg" viewBox="0 0 421.39 661.89"><g id="Слой_2" data-name="Слой 2"><g id="Слой_1-2" data-name="Слой 1"><path d="M126.19,451.89c-23-6.86-43.18-13.7-62.36-23C37.3,416.12,33.7,400.64,53.66,379.26c7.21-7.72,5.34-12.19,1-19.3C37,330.87,17.78,302.56,8.5,269.17-5.17,220-3.76,172.23,23.13,127.37c4.06-6.77,1.07-13.09,2.17-19.6,8.8-52.33,49.78-94.61,102.41-105,35.82-7.08,68.46-.9,96.89,22.91C235,9.62,235.78,9.09,253.29,18.19c23.43,12.18,48.09,21.76,71,35s39.84,31.73,51.76,55c12.23,23.89,24.54,47.78,29.34,74.63.43,2.43,1,5.69,2.75,6.9,14.12,10,13,24.85,13,39.34,0,14.06.45,28.14-.17,42.17-.63,14.45-1.08,29.33-16,38-1.15.68-2,2.74-2.09,4.2-.75,18-8.65,33.7-16.25,49.35-3,6.15-1.87,10.56,2.2,15,20.28,21.94,17.25,44.59,2.25,67.69a75.41,75.41,0,0,0-4.57,7.68c-13.07,26.64-34.37,36.27-63.13,30.93-5.42-1-11-1.38-15.93-2-.84.51-1.37.81-1.36.84,11.32,22.06,14.11,44.77,4.35,68-1.51,3.6-5.38,7.93-8.86,8.69-13.93,3-14,14.06-15.56,24.39-1.2,8-1.91,16.06-3.19,24-1,6.22,0,11,4.66,16.1,9,9.94,6.18,21.83-5.53,28.95-25.32,15.4-55.71-.82-56.76-30.2q-.87-24.24-2.37-48.46c-.21-3.26,2.95-8.73-3.09-9.32-4.52-.45-10.12.82-11.54,6.15-4.37,16.44-8.27,33-9.67,50-.31,3.71,2.38,6.16,4.27,9,7,10.49,5.26,19.42-4.89,26.07-12.16,8-37.27,7.09-48.68-1.8-7.56-5.89-11.47-13.61-10.88-23.31,1.21-20,2.1-40,3.95-59.88.69-7.41-.62-8.66-7.94-7.27-20.52,3.9-34.46-7.46-34.15-28.34.36-24.82,4.05-49.21,13.92-72.3C116.23,458.88,117.63,453.69,126.19,451.89Z"/></g></g></svg>