<svg width="24" height="24" viewBox="0 0 24 24" fill="none" xmlns="http://www.w3.org/2000/svg">
<path d="M3.75 0.75C3.75 0.335786 4.08579 0 4.5 0H19.5C19.9142 0 20.25 0.335786 20.25 0.75C20.25 1.55629 20.2322 2.32367 20.1982 3.05385C22.3519 3.38934 24 5.25221 24 7.5C24 9.98528 21.9853 12 19.5 12C19.1567 12 18.8217 11.9614 18.4996 11.8882C17.3148 14.6862 15.6824 16.054 14.25 16.4062V19.6644L16.388 20.1989C16.679 20.2717 16.9524 20.4018 17.1923 20.5817L19.95 22.65C20.2083 22.8437 20.3136 23.1809 20.2115 23.4872C20.1094 23.7934 19.8228 24 19.5 24H4.5C4.17718 24 3.89057 23.7934 3.78849 23.4872C3.6864 23.1809 3.79174 22.8437 4.05 22.65L6.80767 20.5817C7.04758 20.4018 7.32103 20.2717 7.61197 20.1989L9.75 19.6644V16.4062C8.3176 16.054 6.68517 14.6862 5.50042 11.8882C5.17826 11.9614 4.84334 12 4.5 12C2.01472 12 0 9.98528 0 7.5C0 5.25221 1.64807 3.38935 3.80177 3.05385C3.76781 2.32367 3.75 1.55629 3.75 0.75ZM3.89849 4.56032C2.5299 4.83886 1.5 6.04916 1.5 7.5C1.5 9.15685 2.84315 10.5 4.5 10.5C4.66273 10.5 4.82216 10.4871 4.97739 10.4623C4.47881 8.88805 4.09594 6.94422 3.89849 4.56032ZM19.0226 10.4623C19.1778 10.4871 19.3373 10.5 19.5 10.5C21.1569 10.5 22.5 9.15685 22.5 7.5C22.5 6.04916 21.4701 4.83886 20.1015 4.56032C19.9041 6.94422 19.5212 8.88805 19.0226 10.4623Z" fill="#4D4D4D"/>
</svg>
