<svg width="22" height="28" viewBox="0 0 22 28" fill="none" xmlns="http://www.w3.org/2000/svg">
<path d="M12.2049 10.9324C12.4062 10.3559 13.2605 10.3559 13.4618 10.9324L14.6452 14.3211C15.1726 15.8317 16.4144 17.017 17.9969 17.5205L21.547 18.6501C22.151 18.8423 22.151 19.6577 21.547 19.8499L17.9969 20.9795C16.4144 21.483 15.1726 22.6683 14.6452 24.1789L13.4618 27.5676C13.2605 28.1441 12.4062 28.1441 12.2049 27.5676L11.0215 24.1788C10.494 22.6683 9.25225 21.483 7.6698 20.9795L4.11962 19.8499C3.51568 19.6577 3.51568 18.8423 4.11962 18.6501L7.6698 17.5205C9.25225 17.017 10.494 15.8317 11.0215 14.3212L12.2049 10.9324Z" fill="#4D4D4D"/>
<path d="M5.12296 2.00942C5.24375 1.66353 5.75631 1.66353 5.87709 2.00943L6.58711 4.04268C6.9036 4.94901 7.64866 5.6602 8.59814 5.96231L10.7282 6.64007C11.0906 6.75537 11.0906 7.24463 10.7282 7.35993L8.59815 8.03769C7.64866 8.3398 6.9036 9.05099 6.58711 9.95732L5.87709 11.9906C5.75631 12.3365 5.24375 12.3365 5.12296 11.9906L4.41291 9.9573C4.09641 9.05098 3.35136 8.3398 2.40188 8.03769L0.271775 7.35993C-0.0905917 7.24463 -0.0905919 6.75537 0.271775 6.64007L2.40189 5.96231C3.35136 5.6602 4.09641 4.94902 4.41291 4.0427L5.12296 2.00942Z" fill="#4D4D4D"/>
<path d="M18.082 0.172947C18.1625 -0.0576503 18.5042 -0.0576483 18.5847 0.172949L19.0581 1.52845C19.2691 2.13267 19.7658 2.6068 20.3988 2.80821L21.8188 3.26005C22.0604 3.33691 22.0604 3.66309 21.8188 3.73995L20.3988 4.19179C19.7658 4.3932 19.2691 4.86733 19.0581 5.47155L18.5847 6.82706C18.5042 7.05766 18.1625 7.05766 18.082 6.82706L17.6086 5.47153C17.3976 4.86732 16.9009 4.3932 16.2679 4.19179L14.8479 3.73995C14.6063 3.66309 14.6063 3.33691 14.8479 3.26005L16.2679 2.8082C16.9009 2.6068 17.3976 2.13268 17.6086 1.52847L18.082 0.172947Z" fill="#4D4D4D"/>
</svg>
