<?xml version="1.0" encoding="utf-8"?>
<!-- Generator: Adobe Illustrator 25.3.1, SVG Export Plug-In . SVG Version: 6.00 Build 0)  -->
<svg version="1.1" id="Layer_1" xmlns="http://www.w3.org/2000/svg" xmlns:xlink="http://www.w3.org/1999/xlink" x="0px" y="0px"
	 viewBox="0 0 37 32" style="enable-background:new 0 0 37 32;" xml:space="preserve">
<style type="text/css">
	.st0{fill:#4D4D4D;}
</style>
<g>
	<path class="st0" d="M19.3,28.1c0,2.1,1.7,3.9,3.9,3.9s3.9-1.7,3.9-3.9s-1.7-3.9-3.9-3.9S19.3,26,19.3,28.1z M23.2,26.2
		c1.1,0,1.9,0.9,1.9,1.9c0,1.1-0.9,1.9-1.9,1.9c-1.1,0-1.9-0.9-1.9-1.9C21.3,27.1,22.1,26.2,23.2,26.2z"/>
	<path class="st0" d="M5.8,28.1c0,2.1,1.7,3.9,3.9,3.9s3.9-1.7,3.9-3.9s-1.7-3.9-3.9-3.9S5.8,26,5.8,28.1z M9.7,26.2
		c1.1,0,1.9,0.9,1.9,1.9c0,1.1-0.9,1.9-1.9,1.9c-1.1,0-1.9-0.9-1.9-1.9C7.7,27.1,8.6,26.2,9.7,26.2z"/>
	<path class="st0" d="M20.7,14.2c-0.9-0.8-1.8-1.5-2.4-2.3C17.4,10.8,17,9.7,17,8.4c0-0.5,0.1-1,0.2-1.5H5.6L4.8,3.7
		C4.7,3.3,4.3,3,3.9,3H1C0.4,3,0,3.4,0,4s0.4,1,1,1h2.1L3.9,8l2.9,15.4c0.1,0.5,0.5,0.8,1,0.8h1.9h13.5h1.9c0.5,0,0.9-0.3,1-0.8
		l0.5-2.5l-1.2-1.9C23.9,16.9,22.2,15.4,20.7,14.2z"/>
</g>
<g>
	<path class="st0" d="M31,4.6c-0.2,0-0.3,0-0.5,0l-2.2,0.2l1.4-2c0.1-0.2,0.1-0.4,0.1-0.6c-0.1-0.2-0.3-0.3-0.5-0.3h-4.5
		c-0.3,0-0.5,0.2-0.5,0.3c-0.1,0.2-0.1,0.4,0,0.6l1.4,2l-2.2-0.2c-0.2,0-0.3,0-0.5,0c-2.2,0-4,1.7-4,3.7c0,0.8,0.3,1.5,0.9,2.2
		c0.5,0.7,1.3,1.3,2.1,2c1.5,1.3,3.4,2.9,5,5.4c1.6-2.5,3.5-4.1,5-5.3c0.9-0.7,1.6-1.4,2.2-2C34.7,9.8,35,9.1,35,8.3
		C35,6.3,33.2,4.6,31,4.6z"/>
</g>
</svg>
