<svg width="28" height="25" viewBox="0 0 28 25" fill="none" xmlns="http://www.w3.org/2000/svg">
<path d="M28 11.7205C28 18.1935 21.732 23.4409 14 23.4409C12.5707 23.4409 11.1914 23.2616 9.89247 22.9284C8.87072 23.4238 6.52354 24.3759 2.57551 24.9943C2.22723 25.0489 1.96064 24.7003 2.09821 24.3893C2.7179 22.9887 3.27688 21.1239 3.44712 19.4226C1.30036 17.3628 0 14.6688 0 11.7205C0 5.24743 6.26801 0 14 0C21.732 0 28 5.24743 28 11.7205ZM8.75 11.7205C8.75 10.7958 7.9665 10.0461 7 10.0461C6.0335 10.0461 5.25 10.7958 5.25 11.7205C5.25 12.6452 6.0335 13.3948 7 13.3948C7.9665 13.3948 8.75 12.6452 8.75 11.7205ZM15.75 11.7205C15.75 10.7958 14.9665 10.0461 14 10.0461C13.0335 10.0461 12.25 10.7958 12.25 11.7205C12.25 12.6452 13.0335 13.3948 14 13.3948C14.9665 13.3948 15.75 12.6452 15.75 11.7205ZM21 13.3948C21.9665 13.3948 22.75 12.6452 22.75 11.7205C22.75 10.7958 21.9665 10.0461 21 10.0461C20.0335 10.0461 19.25 10.7958 19.25 11.7205C19.25 12.6452 20.0335 13.3948 21 13.3948Z" fill="#4D4D4D"/>
</svg>
